# xmcd
#
# Track frame offsets:
#	150
#	18290
#	37740
#	56825
#	73412
#	82727
#	93922
#	104507
#	120612
#	133585
#	146515
#
# Disc length: 2189 seconds
#
# Revision: 0
# Processed by: cddbd v1.5.1PL2 Copyright (c) Steve Scherf et al.
# Submitted via: audiograbber 1.83.01
#
DISCID=8f088b0b
DTITLE=Steve Earle - Jerusalem
DYEAR=2002
DGENRE=Country
TTITLE0=Ashes To Ashes
TTITLE1=Amerika V.6.0. (The Best We Can Do)
TTITLE2=Conspiracy Theory
TTITLE3=John Walker's Blues
TTITLE4=The Kind
TTITLE5=What's A Simple Man To Do?
TTITLE6=The Truth
TTITLE7=Go Amanda
TTITLE8=I Remember You
TTITLE9=Shadowland
TTITLE10=Jerusalem
EXTD=
EXTT0=
EXTT1=
EXTT2=
EXTT3=
EXTT4=
EXTT5=
EXTT6=
EXTT7=
EXTT8=
EXTT9=
EXTT10=
PLAYORDER=
